<svg width="35" height="32" viewBox="0 0 35 32" fill="none" xmlns="http://www.w3.org/2000/svg">
<g clip-path="url(#clip0_1010_2)">
<path d="M23.0391 14.4844H20.4141V13.0781C20.4141 12.2969 20.1406 11.6328 19.5938 11.0859C19.0469 10.5391 18.3828 10.2656 17.6016 10.2656H14.7891C14.5234 10.2656 14.3008 10.3555 14.1211 10.5352C13.9414 10.7148 13.8516 10.9375 13.8516 11.2031C13.8516 11.4688 13.9414 11.6914 14.1211 11.8711C14.3008 12.0508 14.5234 12.1406 14.7891 12.1406H17.6016C17.8672 12.1406 18.0898 12.2305 18.2695 12.4102C18.4492 12.5898 18.5391 12.8125 18.5391 13.0781V14.4844H5.41406V13.0781C5.41406 12.8125 5.50391 12.5898 5.68359 12.4102C5.86328 12.2305 6.08594 12.1406 6.35156 12.1406H9.16406C9.42969 12.1406 9.65234 12.0508 9.83203 11.8711C10.0117 11.6914 10.1016 11.4688 10.1016 11.2031C10.1016 10.9375 10.0117 10.7148 9.83203 10.5352C9.65234 10.3555 9.42969 10.2656 9.16406 10.2656H6.35156C5.57031 10.2656 4.90625 10.5391 4.35938 11.0859C3.8125 11.6328 3.53906 12.2969 3.53906 13.0781V14.4844H0.914062C0.617188 14.4844 0.375 14.6016 0.1875 14.8359C0 15.0703 -0.0625 15.3359 0 15.6328L2.85938 28.1016C2.90625 28.3203 3.01562 28.4961 3.1875 28.6289C3.35938 28.7617 3.55469 28.8281 3.77344 28.8281H20.1797C20.3984 28.8281 20.5938 28.7617 20.7656 28.6289C20.9375 28.4961 21.0469 28.3203 21.0938 28.1016L23.9531 15.6328C24.0156 15.3359 23.9531 15.0703 23.7656 14.8359C23.5781 14.6016 23.3359 14.4844 23.0391 14.4844ZM19.4297 26.9531H4.52344L2.08594 16.3594H21.8672L19.4297 26.9531ZM10.5703 19.3125V24C10.5703 24.2656 10.4805 24.4883 10.3008 24.668C10.1211 24.8477 9.89844 24.9375 9.63281 24.9375C9.36719 24.9375 9.14453 24.8477 8.96484 24.668C8.78516 24.4883 8.69531 24.2656 8.69531 24V19.3125C8.69531 19.0469 8.78516 18.8242 8.96484 18.6445C9.14453 18.4648 9.36719 18.375 9.63281 18.375C9.89844 18.375 10.1211 18.4648 10.3008 18.6445C10.4805 18.8242 10.5703 19.0469 10.5703 19.3125ZM15.2578 19.3125V24C15.2578 24.2656 15.168 24.4883 14.9883 24.668C14.8086 24.8477 14.5859 24.9375 14.3203 24.9375C14.0547 24.9375 13.832 24.8477 13.6523 24.668C13.4727 24.4883 13.3828 24.2656 13.3828 24V19.3125C13.3828 19.0469 13.4727 18.8242 13.6523 18.6445C13.832 18.4648 14.0547 18.375 14.3203 18.375C14.5859 18.375 14.8086 18.4648 14.9883 18.6445C15.168 18.8242 15.2578 19.0469 15.2578 19.3125Z" fill="#1B2336"/>
</g>
<rect x="14.5" width="20" height="20" rx="10" fill="#2AAA94"/>
<path d="M26.0598 10.499C26.0598 9.72103 25.9296 9.14323 25.6692 8.76562C25.412 8.38802 25.0523 8.19922 24.5901 8.19922C24.1311 8.19922 23.7746 8.38639 23.5207 8.76074C23.2668 9.13509 23.1399 9.71452 23.1399 10.499C23.1399 11.277 23.2668 11.8548 23.5207 12.2324C23.7746 12.61 24.1311 12.7988 24.5901 12.7988C24.8212 12.7988 25.0279 12.7533 25.2102 12.6621C25.3925 12.5677 25.5455 12.4261 25.6692 12.2373C25.7961 12.0485 25.8922 11.8109 25.9573 11.5244C26.0256 11.2347 26.0598 10.8929 26.0598 10.499ZM27.3928 10.499C27.3928 11.1631 27.3196 11.7246 27.1731 12.1836C27.0266 12.6426 26.8264 13.0137 26.5725 13.2969C26.3186 13.5801 26.0207 13.7852 25.6789 13.9121C25.3404 14.0358 24.9774 14.0977 24.5901 14.0977C24.2027 14.0977 23.8381 14.0342 23.4963 13.9072C23.1578 13.777 22.8616 13.5703 22.6076 13.2871C22.357 13.0007 22.1584 12.6296 22.0119 12.1738C21.8655 11.7148 21.7922 11.1566 21.7922 10.499C21.7922 9.83496 21.8655 9.27507 22.0119 8.81934C22.1584 8.36035 22.357 7.98926 22.6076 7.70605C22.8616 7.42285 23.1578 7.21777 23.4963 7.09082C23.8381 6.96387 24.2027 6.90039 24.5901 6.90039C24.9774 6.90039 25.3404 6.96549 25.6789 7.0957C26.0207 7.22266 26.3186 7.42936 26.5725 7.71582C26.8264 8.00228 27.0266 8.37337 27.1731 8.8291C27.3196 9.28483 27.3928 9.84147 27.3928 10.499Z" fill="white"/>
<defs>
<clipPath id="clip0_1010_2">
<rect width="24" height="25" fill="white" transform="matrix(1 0 0 -1 0 32)"/>
</clipPath>
</defs>
</svg>
